<svg width="12" height="14" viewBox="0 0 12 14" fill="none" xmlns="http://www.w3.org/2000/svg">
<path d="M5.36816 6.46869C6.58194 6.53028 7.73405 7.0392 8.59766 7.90228C9.51815 8.8233 10.0354 10.0726 10.0371 11.3749V13.1249C10.0371 13.2672 9.98075 13.4039 9.87988 13.5048C9.779 13.6057 9.6423 13.662 9.5 13.662H0.75C0.607695 13.662 0.471008 13.6057 0.370117 13.5048C0.26924 13.4039 0.212891 13.2672 0.212891 13.1249V11.3749L0.21875 11.1318C0.280348 9.91801 0.789274 8.76588 1.65234 7.90228C2.51591 7.03922 3.66801 6.53024 4.88184 6.46869L5.125 6.46283L5.36816 6.46869ZM7.04395 8.0517C5.85648 7.36575 4.39354 7.36575 3.20605 8.0517C2.01866 8.73704 1.28713 10.0041 1.28711 11.3749V12.5878H8.96289L8.96191 11.3749C8.96189 10.0043 8.23135 8.73711 7.04395 8.0517ZM10.4863 4.37885C10.6974 4.17449 11.0328 4.17794 11.2402 4.3847L11.3086 4.46771C11.4451 4.67374 11.425 4.95385 11.2461 5.13861L10.6973 5.68744L11.2441 6.23431L11.3135 6.31537C11.3742 6.40316 11.4072 6.50789 11.4082 6.61615C11.4092 6.72409 11.3774 6.82922 11.3184 6.91791L11.251 7.00092C11.1494 7.10303 11.0101 7.15949 10.8662 7.15814C10.7225 7.15679 10.5854 7.09845 10.4854 6.99506L9.9375 6.4472L9.38867 6.99603C9.20392 7.17489 8.9238 7.19505 8.71777 7.05853L8.63477 6.99017C8.42801 6.78275 8.42454 6.44736 8.62891 6.23627L9.17773 5.68744L8.62891 5.13861C8.42455 4.92753 8.428 4.59213 8.63477 4.3847L8.71777 4.31635C8.89425 4.19945 9.12509 4.19733 9.30371 4.31146L9.38867 4.37885L9.9375 4.92767L10.4863 4.37885ZM5.125 0.33783C5.84772 0.33783 6.54083 0.62476 7.05176 1.13568C7.56268 1.64663 7.8496 2.33972 7.84961 3.06244C7.84961 3.78516 7.56268 4.47827 7.05176 4.9892C6.5408 5.50012 5.84771 5.78705 5.125 5.78705H5.08398L5.08105 5.78412C4.37443 5.77218 3.69969 5.48888 3.19922 4.9892L3.19824 4.98822C2.68823 4.47739 2.40096 3.78495 2.40039 3.06244C2.4004 2.33972 2.68732 1.6466 3.19824 1.13568C3.7092 0.624761 4.40228 0.33783 5.125 0.33783ZM5.125 1.41205C4.21393 1.41318 3.47572 2.15137 3.47461 3.06244C3.47461 3.72962 3.87707 4.3316 4.49316 4.58685C5.10984 4.8426 5.82021 4.70122 6.29199 4.22943C6.76376 3.75768 6.90516 3.04728 6.64941 2.4306C6.39414 1.81453 5.79216 1.41205 5.125 1.41205Z" fill="#545F7D" stroke="#545F7D" stroke-width="0.2"/>
</svg>
